<?xml version="1.0" standalone="no"?>
<!DOCTYPE svg PUBLIC "-//W3C//DTD SVG 20010904//EN"
 "http://www.w3.org/TR/2001/REC-SVG-20010904/DTD/svg10.dtd">
<svg version="1.0" xmlns="http://www.w3.org/2000/svg"
 width="512.000000pt" height="512.000000pt" viewBox="0 0 512.000000 512.000000"
 preserveAspectRatio="xMidYMid meet">
<metadata>
Created by potrace 1.16, written by Peter Selinger 2001-2019
</metadata>
<g transform="translate(0.000000,512.000000) scale(0.100000,-0.100000)"
fill="#000000" stroke="none">
<path d="M2340 4124 c-113 -18 -204 -41 -322 -84 l-88 -32 -2 -994 -3 -994
178 0 177 0 0 223 c0 177 3 233 16 270 23 67 83 131 162 169 62 31 74 33 167
33 90 0 106 -3 159 -29 72 -35 131 -92 160 -155 21 -45 21 -57 24 -594 l3
-547 -28 -11 c-81 -32 -222 -52 -363 -53 -220 0 -355 31 -555 129 -668 327
-892 1183 -471 1798 l46 67 0 240 0 241 -21 -12 c-12 -6 -67 -57 -123 -113
-428 -429 -573 -1047 -381 -1623 130 -391 422 -726 790 -908 72 -35 173 -78
226 -95 375 -119 791 -94 1147 71 l82 38 0 663 c0 567 -2 673 -15 723 -49 187
-170 326 -363 417 -117 55 -200 71 -352 66 -120 -4 -169 -15 -292 -63 -17 -7
-18 16 -18 393 l0 400 48 12 c86 21 355 24 457 5 452 -84 825 -406 964 -834
45 -137 56 -218 55 -396 -1 -156 -4 -180 -32 -287 -17 -65 -51 -161 -76 -214
l-46 -97 0 -275 0 -275 21 19 c12 10 54 56 94 101 373 424 490 1015 307 1553
-180 530 -633 927 -1188 1041 -134 27 -411 34 -544 13z"/>
</g>
</svg>
